<svg width="512" height="512" viewBox="0 0 512 512" fill="none" xmlns="http://www.w3.org/2000/svg">
<rect width="512" height="512" fill="#090A0B"/>
<path d="M439.2 282.3C439.2 282.2 439.2 282.2 439.2 282.3C439.2 282.1 439.2 282 439.3 282C439.4 281.7 439.4 281.4 439.4 281C439.4 280.9 439.4 280.8 439.4 280.6C439.4 280.3 439.4 280 439.3 279.7C439.3 279.6 439.3 279.6 439.3 279.5L426.3 225.2C425.8 223.2 424.3 221.7 422.3 221.2L368.5 208.2C368.4 208.2 368.3 208.2 368.2 208.2C367.9 208.1 367.7 208.1 367.4 208.1C367.3 208.1 367.1 208.1 367 208.1C366.7 208.1 366.4 208.2 366 208.2C365.9 208.2 365.8 208.2 365.7 208.2H365.6C365.2 208.3 364.9 208.5 364.5 208.7C364.4 208.7 364.4 208.8 364.3 208.8C364 209 363.7 209.2 363.5 209.4L363.4 209.5L298.3 272.7C297.7 272.9 297.1 273.3 296.7 273.7C296.2 274.2 295.8 274.8 295.6 275.4L272.3 298.1L259.3 253.4C259.3 253.3 259.2 253.1 259.1 253C259 252.8 259 252.7 258.9 252.6C258.6 252 258.3 251.5 257.8 251.1C257.3 250.7 256.8 250.4 256.2 250.1C256.1 250 255.9 250 255.8 249.9C255.7 249.9 255.5 249.8 255.4 249.7L211.9 239.2L303.9 147.6L289.9 86.3L230.6 73L73 230L86.3 289.2L140.2 303.2L153.4 355.3C153.9 357.3 155.5 358.8 157.5 359.2L207.4 369.2L222.1 421.7C222.1 421.8 222.2 421.9 222.3 422.1C222.4 422.2 222.4 422.4 222.5 422.5C222.8 423 223.1 423.6 223.5 424V424.1C223.9 424.5 224.5 424.9 225.1 425.1C225.3 425.2 225.4 425.2 225.6 425.3C225.7 425.4 225.9 425.4 226 425.5L278.8 439C279.2 439.1 279.7 439.2 280.1 439.2C280.6 439.2 281 439.1 281.4 439C281.5 439 281.5 439 281.6 439C281.7 439 281.8 438.9 281.8 438.9C282 438.8 282.2 438.8 282.3 438.7C282.5 438.6 282.6 438.5 282.8 438.5C282.9 438.4 283.1 438.3 283.2 438.2C283.3 438.1 283.5 438 283.6 437.9C283.7 437.8 283.7 437.8 283.8 437.7L437.7 284.8L437.8 284.7C438 284.5 438.2 284.2 438.4 283.9C438.4 283.8 438.5 283.8 438.5 283.7C438.9 283 439.1 282.6 439.2 282.3ZM369.2 337.5L358.9 296.1L384.3 270.7L424 283L369.2 337.5ZM282.7 423.5L271.2 383.9L317.5 337.6L356.4 350.3L282.7 423.5ZM219.5 372.5L256.1 383.7L230 409.8L219.5 372.5ZM297.8 288.4L308.9 331L264.6 375.3L221.8 362.2L297.8 288.4ZM364.7 223.4L376.7 263.2L351.7 288.2L311.2 275.4L364.7 223.4ZM358.8 339.8L326 329.1L350.1 305L358.8 339.8ZM317.7 322.2L308.2 285.7L343.2 296.7L317.7 322.2ZM262.5 392.5L272.3 426.1L237.7 417.3L262.5 392.5ZM426.7 272.8L387.1 260.5L375.2 220.8L416.7 230.8L426.7 272.8ZM214.7 354.2L205 314.3L219.8 298.8L259.9 310.3L214.7 354.2ZM220.6 282.4L209.9 249.7L244 257.9L220.6 282.4ZM228.2 290L251.7 265.3L261.7 299.5L228.2 290ZM212.2 291.2L197.4 306.7L155.1 295.9L199.3 251.9L212.2 291.2ZM162.6 155.9L173.9 193.4L127.4 240.3L89.1 229.1L162.6 155.9ZM239.6 127.1L215.2 151.8L175.7 142.9L229.6 89.3L239.6 127.1ZM234.3 201.9L223.9 158.2L247 134.9L288 148.4L234.3 201.9ZM182.5 184.8L173 153.3L206.3 160.8L182.5 184.8ZM215 167.1L223.5 203L190.2 192.2L215 167.1ZM126.2 256.7L136.7 291.2L101.2 282L126.2 256.7ZM134.8 248.1L181.7 200.8L222.2 214L147.2 288.7L134.8 248.1ZM290.7 137.9L250 124.5L239.7 86L280.9 95.3L290.7 137.9ZM86.1 239.4L118.8 249L93.9 274.1L86.1 239.4ZM162.9 349.3L152 306.2L194.6 317.1L204.5 357.6L162.9 349.3Z" fill="url(#paint0_linear_5_38)"/>
<defs>
<linearGradient id="paint0_linear_5_38" x1="154.87" y1="357.771" x2="358.09" y2="154.55" gradientUnits="userSpaceOnUse">
<stop stop-color="#34A3ED"/>
<stop offset="0.9988" stop-color="#8165F5"/>
</linearGradient>
</defs>
</svg>
