<svg width="367" height="367" viewBox="0 0 367 367" fill="none" xmlns="http://www.w3.org/2000/svg">
<path d="M366.2 209.3C366.2 209.2 366.2 209.2 366.2 209.3C366.2 209.1 366.2 209 366.3 209C366.4 208.7 366.4 208.4 366.4 208C366.4 207.9 366.4 207.8 366.4 207.6C366.4 207.3 366.4 207 366.3 206.7C366.3 206.6 366.3 206.6 366.3 206.5L353.3 152.2C352.8 150.2 351.3 148.7 349.3 148.2L295.5 135.2C295.4 135.2 295.3 135.2 295.2 135.2C294.9 135.1 294.7 135.1 294.4 135.1C294.3 135.1 294.1 135.1 294 135.1C293.7 135.1 293.4 135.2 293 135.2C292.9 135.2 292.8 135.2 292.7 135.2H292.6C292.2 135.3 291.9 135.5 291.5 135.7C291.4 135.7 291.4 135.8 291.3 135.8C291 136 290.7 136.2 290.5 136.4L290.4 136.5L225.3 199.7C224.7 199.9 224.1 200.3 223.7 200.7C223.2 201.2 222.8 201.8 222.6 202.4L199.3 225.1L186.3 180.4C186.3 180.3 186.2 180.1 186.1 180C186 179.8 186 179.7 185.9 179.6C185.6 179 185.3 178.5 184.8 178.1C184.3 177.7 183.8 177.4 183.2 177.1C183.1 177 182.9 177 182.8 176.9C182.7 176.9 182.5 176.8 182.4 176.7L138.9 166.2L230.9 74.6L216.9 13.3L157.6 0L0 157L13.3 216.2L67.2 230.2L80.4 282.3C80.9 284.3 82.5 285.8 84.5 286.2L134.4 296.2L149.1 348.7C149.1 348.8 149.2 348.9 149.3 349.1C149.4 349.2 149.4 349.4 149.5 349.5C149.8 350 150.1 350.6 150.5 351V351.1C150.9 351.5 151.5 351.9 152.1 352.1C152.3 352.2 152.4 352.2 152.6 352.3C152.7 352.4 152.9 352.4 153 352.5L205.8 366C206.2 366.1 206.7 366.2 207.1 366.2C207.6 366.2 208 366.1 208.4 366C208.5 366 208.5 366 208.6 366C208.7 366 208.8 365.9 208.8 365.9C209 365.8 209.2 365.8 209.3 365.7C209.5 365.6 209.6 365.5 209.8 365.5C209.9 365.4 210.1 365.3 210.2 365.2C210.3 365.1 210.5 365 210.6 364.9C210.7 364.8 210.7 364.8 210.8 364.7L364.7 211.8L364.8 211.7C365 211.5 365.2 211.2 365.4 210.9C365.4 210.8 365.5 210.8 365.5 210.7C365.9 210 366.1 209.6 366.2 209.3ZM296.2 264.5L285.9 223.1L311.3 197.7L351 210L296.2 264.5ZM209.7 350.5L198.2 310.9L244.5 264.6L283.4 277.3L209.7 350.5ZM146.5 299.5L183.1 310.7L157 336.8L146.5 299.5ZM224.8 215.4L235.9 258L191.6 302.3L148.8 289.2L224.8 215.4ZM291.7 150.4L303.7 190.2L278.7 215.2L238.2 202.4L291.7 150.4ZM285.8 266.8L253 256.1L277.1 232L285.8 266.8ZM244.7 249.2L235.2 212.7L270.2 223.7L244.7 249.2ZM189.5 319.5L199.3 353.1L164.7 344.3L189.5 319.5ZM353.7 199.8L314.1 187.5L302.2 147.8L343.7 157.8L353.7 199.8ZM141.7 281.2L132 241.3L146.8 225.8L186.9 237.3L141.7 281.2ZM147.6 209.4L136.9 176.7L171 184.9L147.6 209.4ZM155.2 217L178.7 192.3L188.7 226.5L155.2 217ZM139.2 218.2L124.4 233.7L82.1 222.9L126.3 178.9L139.2 218.2ZM89.6 82.9L100.9 120.4L54.4 167.3L16.1 156.1L89.6 82.9ZM166.6 54.1L142.2 78.8L102.7 69.9L156.6 16.3L166.6 54.1ZM161.3 128.9L150.9 85.2L174 61.9L215 75.4L161.3 128.9ZM109.5 111.8L100 80.3L133.3 87.8L109.5 111.8ZM142 94.1L150.5 130L117.2 119.2L142 94.1ZM53.2 183.7L63.7 218.2L28.2 209L53.2 183.7ZM61.8 175.1L108.7 127.8L149.2 141L74.2 215.7L61.8 175.1ZM217.7 64.9L177 51.5L166.7 13L207.9 22.3L217.7 64.9ZM13.1 166.4L45.8 176L20.9 201.1L13.1 166.4ZM89.9 276.3L79 233.2L121.6 244.1L131.5 284.6L89.9 276.3Z" fill="url(#icon_gradient)"/>
<defs>
<linearGradient id="icon_gradient" x1="81.8696" y1="284.771" x2="285.09" y2="81.5498" gradientUnits="userSpaceOnUse">
<stop stop-color="#34A3ED"/>
<stop offset="0.9988" stop-color="#8165F5"/>
</linearGradient>
</defs>
</svg>
