<svg width="1182" height="367" viewBox="0 0 1182 367" fill="none" xmlns="http://www.w3.org/2000/svg">
<path d="M366.2 209.3C366.2 209.2 366.2 209.2 366.2 209.3C366.2 209.1 366.2 209 366.3 209C366.4 208.7 366.4 208.4 366.4 208C366.4 207.9 366.4 207.8 366.4 207.6C366.4 207.3 366.4 207 366.3 206.7C366.3 206.6 366.3 206.6 366.3 206.5L353.3 152.2C352.8 150.2 351.3 148.7 349.3 148.2L295.5 135.2C295.4 135.2 295.3 135.2 295.2 135.2C294.9 135.1 294.7 135.1 294.4 135.1C294.3 135.1 294.1 135.1 294 135.1C293.7 135.1 293.4 135.2 293 135.2C292.9 135.2 292.8 135.2 292.7 135.2H292.6C292.2 135.3 291.9 135.5 291.5 135.7C291.4 135.7 291.4 135.8 291.3 135.8C291 136 290.7 136.2 290.5 136.4L290.4 136.5L225.3 199.7C224.7 199.9 224.1 200.3 223.7 200.7C223.2 201.2 222.8 201.8 222.6 202.4L199.3 225.1L186.3 180.4C186.3 180.3 186.2 180.1 186.1 180C186 179.8 186 179.7 185.9 179.6C185.6 179 185.3 178.5 184.8 178.1C184.3 177.7 183.8 177.4 183.2 177.1C183.1 177 182.9 177 182.8 176.9C182.7 176.9 182.5 176.8 182.4 176.7L138.9 166.2L230.9 74.6L216.9 13.3L157.6 0L0 157L13.3 216.2L67.2 230.2L80.4 282.3C80.9 284.3 82.5 285.8 84.5 286.2L134.4 296.2L149.1 348.7C149.1 348.8 149.2 348.9 149.3 349.1C149.4 349.2 149.4 349.4 149.5 349.5C149.8 350 150.1 350.6 150.5 351V351.1C150.9 351.5 151.5 351.9 152.1 352.1C152.3 352.2 152.4 352.2 152.6 352.3C152.7 352.4 152.9 352.4 153 352.5L205.8 366C206.2 366.1 206.7 366.2 207.1 366.2C207.6 366.2 208 366.1 208.4 366C208.5 366 208.5 366 208.6 366C208.7 366 208.8 365.9 208.8 365.9C209 365.8 209.2 365.8 209.3 365.7C209.5 365.6 209.6 365.5 209.8 365.5C209.9 365.4 210.1 365.3 210.2 365.2C210.3 365.1 210.5 365 210.6 364.9C210.7 364.8 210.7 364.8 210.8 364.7L364.7 211.8L364.8 211.7C365 211.5 365.2 211.2 365.4 210.9C365.4 210.8 365.5 210.8 365.5 210.7C365.9 210 366.1 209.6 366.2 209.3ZM296.2 264.5L285.9 223.1L311.3 197.7L351 210L296.2 264.5ZM209.7 350.5L198.2 310.9L244.5 264.6L283.4 277.3L209.7 350.5ZM146.5 299.5L183.1 310.7L157 336.8L146.5 299.5ZM224.8 215.4L235.9 258L191.6 302.3L148.8 289.2L224.8 215.4ZM291.7 150.4L303.7 190.2L278.7 215.2L238.2 202.4L291.7 150.4ZM285.8 266.8L253 256.1L277.1 232L285.8 266.8ZM244.7 249.2L235.2 212.7L270.2 223.7L244.7 249.2ZM189.5 319.5L199.3 353.1L164.7 344.3L189.5 319.5ZM353.7 199.8L314.1 187.5L302.2 147.8L343.7 157.8L353.7 199.8ZM141.7 281.2L132 241.3L146.8 225.8L186.9 237.3L141.7 281.2ZM147.6 209.4L136.9 176.7L171 184.9L147.6 209.4ZM155.2 217L178.7 192.3L188.7 226.5L155.2 217ZM139.2 218.2L124.4 233.7L82.1 222.9L126.3 178.9L139.2 218.2ZM89.6 82.9L100.9 120.4L54.4 167.3L16.1 156.1L89.6 82.9ZM166.6 54.1L142.2 78.8L102.7 69.9L156.6 16.3L166.6 54.1ZM161.3 128.9L150.9 85.2L174 61.9L215 75.4L161.3 128.9ZM109.5 111.8L100 80.3L133.3 87.8L109.5 111.8ZM142 94.1L150.5 130L117.2 119.2L142 94.1ZM53.2 183.7L63.7 218.2L28.2 209L53.2 183.7ZM61.8 175.1L108.7 127.8L149.2 141L74.2 215.7L61.8 175.1ZM217.7 64.9L177 51.5L166.7 13L207.9 22.3L217.7 64.9ZM13.1 166.4L45.8 176L20.9 201.1L13.1 166.4ZM89.9 276.3L79 233.2L121.6 244.1L131.5 284.6L89.9 276.3Z" fill="url(#paint0_linear_5_37)"/>
<path d="M497.247 264.915C485.36 264.915 475.093 262.445 466.448 257.505C457.854 252.513 451.241 245.463 446.61 236.355C441.979 227.195 439.663 216.414 439.663 204.012C439.663 191.816 441.979 181.112 446.61 171.9C451.293 162.637 457.828 155.433 466.216 150.287C474.605 145.089 484.459 142.491 495.781 142.491C503.088 142.491 509.984 143.674 516.468 146.041C523.003 148.357 528.767 151.959 533.758 156.848C538.802 161.737 542.764 167.964 545.646 175.528C548.528 183.042 549.969 191.996 549.969 202.391V210.959H452.785V192.124H523.183C523.132 186.772 521.974 182.012 519.71 177.844C517.445 173.624 514.281 170.305 510.215 167.886C506.201 165.468 501.518 164.258 496.166 164.258C490.454 164.258 485.437 165.648 481.114 168.427C476.792 171.154 473.421 174.756 471.002 179.234C468.635 183.659 467.426 188.522 467.374 193.823V210.264C467.374 217.16 468.635 223.078 471.157 228.018C473.678 232.907 477.203 236.663 481.732 239.288C486.26 241.861 491.561 243.148 497.633 243.148C501.698 243.148 505.378 242.581 508.671 241.449C511.965 240.266 514.821 238.542 517.24 236.278C519.658 234.013 521.485 231.209 522.72 227.864L548.811 230.797C547.164 237.693 544.025 243.714 539.393 248.86C534.813 253.954 528.947 257.917 521.794 260.747C514.641 263.526 506.459 264.915 497.247 264.915ZM632.814 144.034V165.648H564.654V144.034H632.814ZM581.482 115.628H609.425V226.937C609.425 230.694 609.991 233.576 611.123 235.583C612.307 237.538 613.85 238.876 615.754 239.597C617.658 240.317 619.768 240.677 622.084 240.677C623.834 240.677 625.429 240.549 626.87 240.291C628.362 240.034 629.494 239.803 630.266 239.597L634.975 261.442C633.483 261.956 631.347 262.522 628.568 263.14C625.841 263.757 622.496 264.118 618.533 264.221C611.535 264.426 605.231 263.372 599.621 261.056C594.012 258.689 589.561 255.035 586.267 250.095C583.025 245.154 581.43 238.979 581.482 231.569V115.628ZM686.673 193.128V262.6H658.73V104.513H686.056V164.181H687.445C690.224 157.491 694.521 152.217 700.336 148.357C706.203 144.446 713.664 142.491 722.722 142.491C730.955 142.491 738.134 144.215 744.258 147.662C750.382 151.11 755.116 156.153 758.461 162.792C761.857 169.43 763.556 177.535 763.556 187.107V262.6H735.612V191.43C735.612 183.453 733.554 177.252 729.437 172.827C725.372 168.35 719.66 166.111 712.301 166.111C707.361 166.111 702.935 167.192 699.024 169.353C695.164 171.463 692.128 174.525 689.915 178.539C687.754 182.553 686.673 187.416 686.673 193.128ZM844.529 264.915C832.641 264.915 822.375 262.445 813.73 257.505C805.136 252.513 798.523 245.463 793.892 236.355C789.26 227.195 786.944 216.414 786.944 204.012C786.944 191.816 789.26 181.112 793.892 171.9C798.574 162.637 805.11 155.433 813.498 150.287C821.886 145.089 831.741 142.491 843.062 142.491C850.369 142.491 857.265 143.674 863.749 146.041C870.285 148.357 876.048 151.959 881.04 156.848C886.083 161.737 890.046 167.964 892.927 175.528C895.809 183.042 897.25 191.996 897.25 202.391V210.959H800.067V192.124H870.465C870.413 186.772 869.255 182.012 866.991 177.844C864.727 173.624 861.562 170.305 857.497 167.886C853.483 165.468 848.8 164.258 843.448 164.258C837.736 164.258 832.718 165.648 828.396 168.427C824.073 171.154 820.702 174.756 818.284 179.234C815.917 183.659 814.707 188.522 814.656 193.823V210.264C814.656 217.16 815.917 223.078 818.438 228.018C820.96 232.907 824.485 236.663 829.013 239.288C833.542 241.861 838.842 243.148 844.915 243.148C848.98 243.148 852.659 242.581 855.953 241.449C859.246 240.266 862.102 238.542 864.521 236.278C866.94 234.013 868.767 231.209 870.002 227.864L896.092 230.797C894.445 237.693 891.306 243.714 886.675 248.86C882.095 253.954 876.228 257.917 869.075 260.747C861.922 263.526 853.74 264.915 844.529 264.915ZM920.89 262.6V144.034H947.984V163.795H949.219C951.38 156.951 955.085 151.676 960.334 147.971C965.635 144.215 971.681 142.336 978.474 142.336C980.018 142.336 981.742 142.413 983.646 142.568C985.601 142.671 987.222 142.851 988.509 143.108V168.813C987.325 168.401 985.447 168.041 982.874 167.732C980.352 167.372 977.908 167.192 975.541 167.192C970.446 167.192 965.866 168.298 961.801 170.511C957.787 172.672 954.622 175.683 952.306 179.542C949.991 183.402 948.833 187.853 948.833 192.896V262.6H920.89ZM1010.7 264.298C1006.02 264.298 1002 262.651 998.659 259.358C995.315 256.064 993.668 252.05 993.719 247.316C993.668 242.684 995.315 238.722 998.659 235.428C1002 232.135 1006.02 230.488 1010.7 230.488C1015.23 230.488 1019.17 232.135 1022.51 235.428C1025.91 238.722 1027.63 242.684 1027.68 247.316C1027.63 250.455 1026.81 253.311 1025.21 255.884C1023.67 258.457 1021.61 260.515 1019.04 262.059C1016.52 263.552 1013.74 264.298 1010.7 264.298ZM1116.59 144.034V165.648H1046.5V144.034H1116.59ZM1064.02 262.6V132.842C1064.02 124.865 1065.67 118.227 1068.96 112.927C1072.31 107.626 1076.78 103.664 1082.39 101.039C1088 98.4147 1094.23 97.1025 1101.07 97.1025C1105.91 97.1025 1110.21 97.4884 1113.96 98.2603C1117.72 99.0322 1120.5 99.727 1122.3 100.344L1116.74 121.958C1115.56 121.598 1114.07 121.237 1112.27 120.877C1110.46 120.466 1108.46 120.26 1106.24 120.26C1101.05 120.26 1097.37 121.521 1095.21 124.042C1093.1 126.512 1092.04 130.063 1092.04 134.694V262.6H1064.02ZM1138.47 262.6V144.034H1166.41V262.6H1138.47ZM1152.52 127.207C1148.09 127.207 1144.29 125.74 1141.1 122.807C1137.91 119.822 1136.31 116.246 1136.31 112.077C1136.31 107.858 1137.91 104.281 1141.1 101.348C1144.29 98.3633 1148.09 96.8709 1152.52 96.8709C1157 96.8709 1160.81 98.3633 1163.94 101.348C1167.13 104.281 1168.73 107.858 1168.73 112.077C1168.73 116.246 1167.13 119.822 1163.94 122.807C1160.81 125.74 1157 127.207 1152.52 127.207Z" fill="white"/>
<defs>
<linearGradient id="paint0_linear_5_37" x1="81.8696" y1="284.771" x2="285.09" y2="81.5498" gradientUnits="userSpaceOnUse">
<stop stop-color="#34A3ED"/>
<stop offset="0.9988" stop-color="#8165F5"/>
</linearGradient>
</defs>
</svg>
